<svg xmlns="http://www.w3.org/2000/svg" viewBox="0 0 980 520">
  <defs>
    <marker id="arrow-blue" viewBox="0 0 10 10" refX="8.5" refY="5" markerWidth="8" markerHeight="8" orient="auto-start-reverse">
      <path d="M 0 0 L 10 5 L 0 10 z" fill="#2563eb"/>
    </marker>
    <filter id="soft-shadow" x="-20%" y="-20%" width="140%" height="140%">
      <feDropShadow dx="0" dy="8" stdDeviation="10" flood-color="#0f172a" flood-opacity="0.12"/>
    </filter>
  </defs>

  <rect width="980" height="520" rx="24" fill="#f8fafc"/>
  <g opacity="0.65">
    <path d="M80 80H900M80 140H900M80 200H900M80 260H900M80 320H900M80 380H900M80 440H900" stroke="#dbe4ef" stroke-width="1"/>
    <path d="M100 60V460M180 60V460M260 60V460M340 60V460M420 60V460M500 60V460M580 60V460M660 60V460M740 60V460M820 60V460M900 60V460" stroke="#dbe4ef" stroke-width="1"/>
  </g>

  <g filter="url(#soft-shadow)">
    <path d="M180 360 C 335 130, 625 100, 800 280" fill="none" stroke="#111827" stroke-width="7" stroke-linecap="round"/>
    <path d="M180 360 C 335 130, 625 100, 800 280" fill="none" stroke="#f8fafc" stroke-width="2.5" stroke-linecap="round" opacity="0.75"/>
  </g>

  <path d="M180 360 L320 150" stroke="#2563eb" stroke-width="5" stroke-linecap="round" marker-end="url(#arrow-blue)"/>
  <path d="M800 280 L905 388" stroke="#2563eb" stroke-width="5" stroke-linecap="round" marker-end="url(#arrow-blue)"/>

  <circle cx="180" cy="360" r="14" fill="#16a34a" stroke="#f8fafc" stroke-width="5"/>
  <circle cx="800" cy="280" r="14" fill="#16a34a" stroke="#f8fafc" stroke-width="5"/>

  <g font-family="ui-sans-serif, system-ui, -apple-system, BlinkMacSystemFont, 'Segoe UI', sans-serif">
    <text x="145" y="398" fill="#14532d" font-size="24" font-weight="700">P0</text>
    <text x="812" y="314" fill="#14532d" font-size="24" font-weight="700">P1</text>

    <text x="326" y="146" fill="#1d4ed8" font-size="23" font-weight="700">T0</text>
    <text x="884" y="360" fill="#1d4ed8" font-size="23" font-weight="700">T1</text>

    <text x="110" y="56" fill="#0f172a" font-size="25" font-weight="700">Fergusonova kubika</text>
    <text x="110" y="91" fill="#475569" font-size="18">krivka prechádza krajnými uzlovými bodmi</text>

    <g>
      <rect x="535" y="365" width="350" height="86" rx="10" fill="#ffffff" opacity="0.92"/>
      <text x="555" y="398" fill="#0f172a" font-size="18" font-weight="700">P0, P1</text>
      <text x="628" y="398" fill="#475569" font-size="18">určujú začiatok a koniec</text>
      <text x="555" y="428" fill="#0f172a" font-size="18" font-weight="700">T0, T1</text>
      <text x="628" y="428" fill="#475569" font-size="18">určujú smer a zakrivenie</text>
    </g>
  </g>
</svg>
