{
	"asset":{
		"generator":"Khronos glTF Blender I/O v4.3.47",
		"version":"2.0"
	},
	"scene":0,
	"scenes":[
		{
			"name":"Scene",
			"nodes":[
				0,
				1,
				2,
				4
			]
		}
	],
	"nodes":[
		{
			"mesh":0,
			"name":"MacBook Body"
		},
		{
			"name":"Empty",
			"rotation":[
				0.70710688829422,
				0,
				0,
				0.7071066498756409
			],
			"scale":[
				0.05391925200819969,
				0.05391925200819969,
				0.05391925200819969
			],
			"translation":[
				0.002922438783571124,
				0.018956495448946953,
				0
			]
		},
		{
			"name":"Empty.001",
			"rotation":[
				0,
				-0.7071068286895752,
				0,
				0.7071068286895752
			],
			"scale":[
				0.09328406304121017,
				0.09328406304121017,
				0.09328406304121017
			],
			"translation":[
				-0.00714011350646615,
				0,
				0.0013807364739477634
			]
		},
		{
			"mesh":1,
			"name":"Charniere"
		},
		{
			"children":[
				3
			],
			"mesh":2,
			"name":"Ecran",
			"translation":[
				0.12125862389802933,
				0.007316870614886284,
				0
			]
		}
	],
	"materials":[
		{
			"doubleSided":true,
			"emissiveFactor":[
				1,
				1,
				1
			],
			"emissiveTexture":{
				"index":0
			},
			"name":"MacBookPro",
			"normalTexture":{
				"index":1
			},
			"pbrMetallicRoughness":{
				"baseColorTexture":{
					"index":2
				},
				"metallicRoughnessTexture":{
					"index":3
				}
			}
		}
	],
	"meshes":[
		{
			"name":"Plane",
			"primitives":[
				{
					"attributes":{
						"POSITION":0,
						"NORMAL":1,
						"TEXCOORD_0":2
					},
					"indices":3,
					"material":0
				}
			]
		},
		{
			"name":"Plane.003",
			"primitives":[
				{
					"attributes":{
						"POSITION":4,
						"NORMAL":5,
						"TEXCOORD_0":6
					},
					"indices":7,
					"material":0
				}
			]
		},
		{
			"name":"Plane.004",
			"primitives":[
				{
					"attributes":{
						"POSITION":8,
						"NORMAL":9,
						"TEXCOORD_0":10
					},
					"indices":11,
					"material":0
				}
			]
		}
	],
	"textures":[
		{
			"sampler":0,
			"source":0
		},
		{
			"sampler":0,
			"source":1
		},
		{
			"sampler":0,
			"source":2
		},
		{
			"sampler":0,
			"source":3
		}
	],
	"images":[
		{
			"mimeType":"image/jpeg",
			"name":"MacBookPro_Emissive",
			"uri":"MacBookPro_Emissive.jpg"
		},
		{
			"mimeType":"image/png",
			"name":"MacBookPro_Normal_OpenGL",
			"uri":"MacBookPro_Normal_OpenGL.png"
		},
		{
			"mimeType":"image/jpeg",
			"name":"MacBookPro_BaseColor",
			"uri":"MacBookPro_BaseColor.jpg"
		},
		{
			"mimeType":"image/png",
			"name":"MacBookPro_Metallic-MacBookPro_Roughness",
			"uri":"MacBookPro_Metallic-MacBookPro_Roughness.png"
		}
	],
	"accessors":[
		{
			"bufferView":0,
			"componentType":5126,
			"count":84,
			"max":[
				0.1229500025510788,
				0.010354000143706799,
				0.1789499968290329
			],
			"min":[
				-0.1229500025510788,
				0,
				-0.1789499968290329
			],
			"type":"VEC3"
		},
		{
			"bufferView":1,
			"componentType":5126,
			"count":84,
			"type":"VEC3"
		},
		{
			"bufferView":2,
			"componentType":5126,
			"count":84,
			"type":"VEC2"
		},
		{
			"bufferView":3,
			"componentType":5123,
			"count":252,
			"type":"SCALAR"
		},
		{
			"bufferView":4,
			"componentType":5126,
			"count":12,
			"max":[
				0.0039263092912733555,
				0.002899999963119626,
				0.13993234932422638
			],
			"min":[
				-0.003217262215912342,
				-0.002899999963119626,
				-0.13993234932422638
			],
			"type":"VEC3"
		},
		{
			"bufferView":5,
			"componentType":5126,
			"count":12,
			"type":"VEC3"
		},
		{
			"bufferView":6,
			"componentType":5126,
			"count":12,
			"type":"VEC2"
		},
		{
			"bufferView":7,
			"componentType":5123,
			"count":30,
			"type":"SCALAR"
		},
		{
			"bufferView":8,
			"componentType":5126,
			"count":20,
			"max":[
				0.007284813094884157,
				0.24420861899852753,
				0.1789500117301941
			],
			"min":[
				0.003784813452512026,
				-0.001691378653049469,
				-0.1789500117301941
			],
			"type":"VEC3"
		},
		{
			"bufferView":9,
			"componentType":5126,
			"count":20,
			"type":"VEC3"
		},
		{
			"bufferView":10,
			"componentType":5126,
			"count":20,
			"type":"VEC2"
		},
		{
			"bufferView":11,
			"componentType":5123,
			"count":60,
			"type":"SCALAR"
		}
	],
	"bufferViews":[
		{
			"buffer":0,
			"byteLength":1008,
			"byteOffset":0,
			"target":34962
		},
		{
			"buffer":0,
			"byteLength":1008,
			"byteOffset":1008,
			"target":34962
		},
		{
			"buffer":0,
			"byteLength":672,
			"byteOffset":2016,
			"target":34962
		},
		{
			"buffer":0,
			"byteLength":504,
			"byteOffset":2688,
			"target":34963
		},
		{
			"buffer":0,
			"byteLength":144,
			"byteOffset":3192,
			"target":34962
		},
		{
			"buffer":0,
			"byteLength":144,
			"byteOffset":3336,
			"target":34962
		},
		{
			"buffer":0,
			"byteLength":96,
			"byteOffset":3480,
			"target":34962
		},
		{
			"buffer":0,
			"byteLength":60,
			"byteOffset":3576,
			"target":34963
		},
		{
			"buffer":0,
			"byteLength":240,
			"byteOffset":3636,
			"target":34962
		},
		{
			"buffer":0,
			"byteLength":240,
			"byteOffset":3876,
			"target":34962
		},
		{
			"buffer":0,
			"byteLength":160,
			"byteOffset":4116,
			"target":34962
		},
		{
			"buffer":0,
			"byteLength":120,
			"byteOffset":4276,
			"target":34963
		}
	],
	"samplers":[
		{
			"magFilter":9729,
			"minFilter":9987
		}
	],
	"buffers":[
		{
			"byteLength":4396,
			"uri":"Sketchfab_2021_12_17_15_43_17.bin"
		}
	]
}
